<svg width="60" height="60" viewBox="0 0 60 60" fill="none" xmlns="http://www.w3.org/2000/svg">
<g id="checked 1" clip-path="url(#clip0_1841_20250)">
<path id="Vector" d="M30 60C46.5685 60 60 46.5685 60 30C60 13.4315 46.5685 0 30 0C13.4315 0 0 13.4315 0 30C0 46.5685 13.4315 60 30 60Z" fill="#32BA7C"/>
<path id="Vector_2" d="M22.332 43.5345L37.7579 58.9604C50.5339 55.5534 59.9976 43.913 59.9976 30.0014C59.9976 29.7174 59.9976 29.4335 59.9976 29.1496L47.8841 17.9824L22.332 43.5345Z" fill="#41C78A"/>
<g id="Group">
<path id="Vector_3" d="M30.7564 36.7196C32.0813 38.0445 32.0813 40.3158 30.7564 41.6407L28.0119 44.3852C26.687 45.7101 24.4157 45.7101 23.0907 44.3852L11.0718 32.2716C9.74689 30.9467 9.74689 28.6754 11.0718 27.3505L13.8163 24.606C15.1412 23.2811 17.4125 23.2811 18.7374 24.606L30.7564 36.7196Z" fill="white"/>
<path id="Vector_4" d="M41.2631 15.8042C42.588 14.4793 44.8593 14.4793 46.1842 15.8042L48.9287 18.5487C50.2536 19.8736 50.2536 22.1449 48.9287 23.4698L28.1085 44.1954C26.7836 45.5203 24.5123 45.5203 23.1874 44.1954L20.4429 41.4509C19.118 40.126 19.118 37.8547 20.4429 36.5298L41.2631 15.8042Z" fill="white"/>
</g>
</g>
<defs>
<clipPath id="clip0_1841_20250">
<rect width="60" height="60" fill="white"/>
</clipPath>
</defs>
</svg>

