<svg xmlns="http://www.w3.org/2000/svg" width="28" height="28" viewBox="0 0 28 28" fill="none">
  <path d="M20.8138 9.44578L20.9712 9.31084C22.5455 7.849 24.6821 5.84739 24.6821 3.28353V0H4.66602V3.28353C4.66602 5.84739 6.80256 7.849 8.37686 9.31084L8.53429 9.44578C10.1311 10.9301 10.9182 12.302 11.0082 13.6964C11.1206 15.5631 9.83871 17.0474 9.07405 17.7671C7.00497 19.6787 4.66602 21.8602 4.66602 24.4466V28H24.6821V24.4466C24.6821 21.8602 22.3431 19.7012 20.274 17.7671C19.5094 17.0474 18.2275 15.5631 18.3399 13.6964C18.4299 12.302 19.217 10.9301 20.8138 9.44578ZM19.0821 19.049C20.7913 20.6458 22.9279 22.6249 22.9279 24.4466V26.2458H6.42023V24.4466C6.42023 22.6249 8.55678 20.6458 10.266 19.049C11.9977 17.4522 12.8749 15.5181 12.7624 13.6064C12.65 11.7398 11.6604 9.96305 9.72626 8.16386L9.56883 8.02892C8.15196 6.7245 6.42023 5.08273 6.42023 3.28353V1.73173H22.9504V3.28353C22.9504 5.08273 21.1961 6.70201 19.8018 8.02892L19.6218 8.16386C17.6877 9.96305 16.6981 11.7398 16.5857 13.5839C16.4732 15.4956 17.3504 17.4522 19.0821 19.049Z" fill="#FF5824"/>
  <path d="M12.1772 20.443C12.0648 20.5554 11.9523 20.6454 11.8399 20.7578C11.2776 21.2751 10.0857 22.3771 9.34349 23.2992C9.14108 23.5466 9.321 23.9064 9.63586 23.9064H19.6664C19.9812 23.9064 20.1612 23.5466 19.9587 23.2992C19.2166 22.3771 18.0246 21.2751 17.4624 20.7578C17.3499 20.6454 17.2375 20.5554 17.125 20.443C15.7981 19.0711 13.5491 19.0711 12.1772 20.443Z" fill="#FF5824"/>
  <path d="M18.0259 6.4539L18.1834 6.31896C18.6781 5.84668 19.4428 5.127 19.9825 4.47479C20.095 4.33985 19.9826 4.13744 19.8026 4.15993C16.3842 4.78965 12.9657 4.78965 9.54721 4.15993C9.36729 4.13744 9.25484 4.33985 9.36729 4.47479C9.90705 5.14949 10.6717 5.84668 11.1665 6.31896L11.3239 6.47639C12.5834 7.64587 13.5054 8.81535 14.1352 10.0523C14.3601 10.5021 14.9898 10.5021 15.2147 10.0523C15.8444 8.81535 16.789 7.62338 18.0259 6.4539Z" fill="#FF5824"/>
</svg>