<svg xmlns="http://www.w3.org/2000/svg" width="28" height="28" viewBox="0 0 28 28" fill="none">
  <path d="M26.408 10.1495C25.8205 9.56137 25.4966 8.78011 25.4966 7.94926C25.4966 4.94675 23.0537 2.50379 20.0511 2.50379C19.2197 2.50379 18.4384 2.17997 17.8509 1.59242C15.7276 -0.530806 12.2729 -0.530806 10.1491 1.59242C9.56157 2.18055 8.7803 2.50379 7.94886 2.50379C4.94634 2.50379 2.50337 4.94675 2.50337 7.94926C2.50337 8.7807 2.17954 9.56195 1.59199 10.1495C-0.530663 12.2727 -0.530663 15.728 1.59199 17.8506C2.17954 18.4388 2.50337 19.22 2.50337 20.0509C2.50337 23.0534 4.94634 25.4964 7.94886 25.4964C8.7803 25.4964 9.56157 25.8202 10.1491 26.4077C11.2104 27.469 12.6049 28 14 28C15.3951 28 16.789 27.469 17.8509 26.4077C18.4384 25.8196 19.2197 25.4964 20.0511 25.4964C23.0537 25.4964 25.4966 23.0534 25.4966 20.0509C25.4966 19.2194 25.8205 18.4382 26.408 17.8506C28.5307 15.7274 28.5307 12.2721 26.408 10.1495ZM21.0973 11.1787L13.804 18.472C13.5764 18.7002 13.2777 18.8139 12.9789 18.8139C12.6802 18.8139 12.3815 18.7002 12.1539 18.472L8.50724 14.8254C8.05155 14.3697 8.05155 13.631 8.50724 13.1753C8.96235 12.7197 9.70218 12.7197 10.1573 13.1753L12.9789 15.997L19.4472 9.5287C19.9024 9.07301 20.6422 9.07301 21.0973 9.5287C21.553 9.98438 21.553 10.723 21.0973 11.1787Z" fill="#4ACB5F"/>
</svg>